<mxfile host="65bd71144e">
    <diagram id="pXt7ZD64DGQOCssldogR" name="第 1 页">
        <mxGraphModel dx="587" dy="787" grid="1" gridSize="10" guides="1" tooltips="1" connect="1" arrows="1" fold="1" page="1" pageScale="1" pageWidth="827" pageHeight="1169" math="0" shadow="0">
            <root>
                <mxCell id="0"/>
                <mxCell id="1" parent="0"/>
                <mxCell id="2" value="Accounts(賬戶表)" style="swimlane;childLayout=stackLayout;horizontal=1;startSize=50;horizontalStack=0;rounded=1;fontSize=14;fontStyle=0;strokeWidth=2;resizeParent=0;resizeLast=1;shadow=0;dashed=0;align=center;arcSize=4;whiteSpace=wrap;html=1;" parent="1" vertex="1">
                    <mxGeometry x="200" y="190" width="210" height="180" as="geometry"/>
                </mxCell>
                <mxCell id="3" value="AccountID : bigint(PK,AI)&lt;div&gt;CustomerID : integer(FK,NN)&lt;/div&gt;&lt;div&gt;AccountType : smallint(NN)&lt;/div&gt;&lt;div&gt;Balance : numeric(15,2)(NN,DF=0)&lt;br&gt;Currency : char(3)(NN)&lt;/div&gt;&lt;div&gt;Status : smallint(NN)&lt;/div&gt;&lt;div&gt;OpenDate : timestamp(NN,DF=now())&lt;/div&gt;&lt;div&gt;CloseDate : timestamp&lt;/div&gt;" style="align=left;strokeColor=none;fillColor=none;spacingLeft=4;fontSize=12;verticalAlign=top;resizable=0;rotatable=0;part=1;html=1;" parent="2" vertex="1">
                    <mxGeometry y="50" width="210" height="130" as="geometry"/>
                </mxCell>
                <mxCell id="4" value="Cards(銀行卡表)" style="swimlane;childLayout=stackLayout;horizontal=1;startSize=50;horizontalStack=0;rounded=1;fontSize=14;fontStyle=0;strokeWidth=2;resizeParent=0;resizeLast=1;shadow=0;dashed=0;align=center;arcSize=4;whiteSpace=wrap;html=1;" parent="1" vertex="1">
                    <mxGeometry x="460" y="190" width="200" height="190" as="geometry"/>
                </mxCell>
                <mxCell id="5" value="CardID : bigint(PK,AI)&lt;div&gt;AccountID : bigint(FK,NN)&lt;/div&gt;&lt;div&gt;CardNumber : varchar(19)(UK)(NN)&lt;/div&gt;&lt;div&gt;ExpiryYear : smallint(NN)&lt;/div&gt;&lt;div&gt;ExpiryMonth : smallint(NN)&lt;/div&gt;&lt;div&gt;&lt;span style=&quot;background-color: transparent;&quot;&gt;PINHash : text&lt;/span&gt;&lt;/div&gt;&lt;div&gt;&lt;span style=&quot;background-color: transparent;&quot;&gt;PINFailCount : smallint(NN,DF=0)&lt;/span&gt;&lt;/div&gt;&lt;div&gt;&lt;span style=&quot;background-color: transparent;&quot;&gt;PINLockedUntil : timestamp&lt;/span&gt;&lt;/div&gt;&lt;div&gt;&lt;span style=&quot;background-color: transparent;&quot;&gt;IsActivated : boolean(NN,DF=false)&lt;/span&gt;&lt;/div&gt;" style="align=left;strokeColor=none;fillColor=none;spacingLeft=4;fontSize=12;verticalAlign=top;resizable=0;rotatable=0;part=1;html=1;" parent="4" vertex="1">
                    <mxGeometry y="50" width="200" height="140" as="geometry"/>
                </mxCell>
                <mxCell id="6" value="" style="edgeStyle=entityRelationEdgeStyle;fontSize=12;html=1;endArrow=ERoneToMany;exitX=0.978;exitY=0.091;exitDx=0;exitDy=0;exitPerimeter=0;entryX=0;entryY=0.25;entryDx=0;entryDy=0;" parent="1" source="3" target="5" edge="1">
                    <mxGeometry width="100" height="100" relative="1" as="geometry">
                        <mxPoint x="370" y="310" as="sourcePoint"/>
                        <mxPoint x="470" y="210" as="targetPoint"/>
                    </mxGeometry>
                </mxCell>
                <mxCell id="7" value="" style="edgeStyle=entityRelationEdgeStyle;fontSize=12;html=1;endArrow=ERoneToMany;entryX=0;entryY=0.064;entryDx=0;entryDy=0;entryPerimeter=0;" parent="1" target="3" edge="1">
                    <mxGeometry width="100" height="100" relative="1" as="geometry">
                        <mxPoint x="110" y="350" as="sourcePoint"/>
                        <mxPoint x="160" y="250" as="targetPoint"/>
                    </mxGeometry>
                </mxCell>
                <mxCell id="9" value="Customers" style="ellipse;whiteSpace=wrap;html=1;align=center;" parent="1" vertex="1">
                    <mxGeometry x="10" y="330" width="100" height="40" as="geometry"/>
                </mxCell>
                <mxCell id="10" value="CK:CloseDate is null or CloseDate &amp;gt;= OpenDate" style="shape=note;size=20;whiteSpace=wrap;html=1;" vertex="1" parent="1">
                    <mxGeometry x="230" y="400" width="100" height="100" as="geometry"/>
                </mxCell>
                <mxCell id="11" style="edgeStyle=none;html=1;entryX=0.386;entryY=1;entryDx=0;entryDy=0;entryPerimeter=0;" edge="1" parent="1" source="10" target="3">
                    <mxGeometry relative="1" as="geometry"/>
                </mxCell>
                <mxCell id="13" style="edgeStyle=none;html=1;entryX=1;entryY=0.636;entryDx=0;entryDy=0;entryPerimeter=0;" edge="1" parent="1" source="12" target="5">
                    <mxGeometry relative="1" as="geometry"/>
                </mxCell>
                <mxCell id="12" value="CK: ExpiryMonth between 1 and 12" style="shape=note;size=20;whiteSpace=wrap;html=1;" vertex="1" parent="1">
                    <mxGeometry x="710" y="280" width="100" height="100" as="geometry"/>
                </mxCell>
                <mxCell id="14" value="CK:PIN policy:&lt;span style=&quot;background-color: transparent;&quot;&gt;&lt;font color=&quot;#000000&quot;&gt;&amp;nbsp;&lt;/font&gt;&lt;/span&gt;&lt;div&gt;&lt;span style=&quot;background-color: transparent;&quot;&gt;&lt;font color=&quot;#000000&quot;&gt;&amp;nbsp;- Stored as salted KDF (e.g., Argon2id MCF)&lt;/font&gt;&lt;/span&gt;&lt;/div&gt;&lt;div&gt;&lt;span style=&quot;background-color: transparent;&quot;&gt;&amp;nbsp; - NOT UNIQUE&lt;/span&gt;&lt;div&gt;&lt;font color=&quot;#000000&quot;&gt;&amp;nbsp; - Track pin_fail_count, pin_locked_until&lt;/font&gt;&lt;/div&gt;&lt;div&gt;&lt;font color=&quot;#000000&quot;&gt;&amp;nbsp; - If status=Activated -&amp;gt; pin_hash NOT NULL&lt;/font&gt;&lt;/div&gt;&lt;/div&gt;" style="shape=note;size=20;whiteSpace=wrap;html=1;" vertex="1" parent="1">
                    <mxGeometry x="390" y="400" width="270" height="90" as="geometry"/>
                </mxCell>
                <mxCell id="15" style="edgeStyle=none;html=1;entryX=0.29;entryY=1.027;entryDx=0;entryDy=0;entryPerimeter=0;" edge="1" parent="1" source="14" target="5">
                    <mxGeometry relative="1" as="geometry"/>
                </mxCell>
                <mxCell id="16" value="CK:CardNumber~&lt;div&gt;&#39;^[0~9]{16,19}$&#39;&lt;/div&gt;" style="shape=note;size=20;whiteSpace=wrap;html=1;" vertex="1" parent="1">
                    <mxGeometry x="720" y="160" width="100" height="100" as="geometry"/>
                </mxCell>
                <mxCell id="17" style="edgeStyle=none;html=1;entryX=0.98;entryY=0.314;entryDx=0;entryDy=0;entryPerimeter=0;" edge="1" parent="1" source="16" target="5">
                    <mxGeometry relative="1" as="geometry"/>
                </mxCell>
            </root>
        </mxGraphModel>
    </diagram>
</mxfile>